<svg width="500" height="500" version="1.1" xmlns="http://www.w3.org/2000/svg" desc="Created with imagetracer.js version 1.2.6" ><path fill="rgb(143,203,220)" stroke="rgb(143,203,220)" stroke-width="1" opacity="1" d="M 241.5 130 L 256.5 130 L 257 134 L 241.5 134 L 240.5 135 L 239 132.5 L 241.5 130 Z " /><path fill="rgb(143,203,220)" stroke="rgb(143,203,220)" stroke-width="1" opacity="1" d="M 264.5 136 L 265 138 L 262 137.5 L 264.5 136 Z " /><path fill="rgb(143,203,220)" stroke="rgb(143,203,220)" stroke-width="1" opacity="1" d="M 236.5 137 L 245 137.5 L 243 138.5 L 244.5 141 L 236 140.5 L 240 140 Q 241.3 136.7 236.5 138 L 236.5 137 Z " /><path fill="rgb(143,203,220)" stroke="rgb(143,203,220)" stroke-width="1" opacity="1" d="M 268 137 Q 273.2 135.3 272 139 Q 266.8 140.7 268 137 Z " /><path fill="rgb(143,203,220)" stroke="rgb(143,203,220)" stroke-width="1" opacity="1" d="M 232.5 138 L 235 138.5 L 232.5 139 L 232.5 138 Z " /><path fill="rgb(143,203,220)" stroke="rgb(143,203,220)" stroke-width="1" opacity="1" d="M 248.5 139 L 260 139.5 L 248.5 140 L 248.5 139 Z " /><path fill="rgb(143,203,220)" stroke="rgb(143,203,220)" stroke-width="1" opacity="1" d="M 261.5 140 L 264.5 141 L 268.5 140 L 271 144 L 273 144.5 L 270.5 145 L 266.5 142 L 262.5 142 L 261.5 140 Z " /><path fill="rgb(143,203,220)" stroke="rgb(143,203,220)" stroke-width="1" opacity="1" d="M 232 141 L 235 141.5 Q 233.6 144.6 228.5 144 L 228.5 143 Q 233.3 144.3 232 141 Z " /><path fill="rgb(143,203,220)" stroke="rgb(143,203,220)" stroke-width="1" opacity="1" d="M 224.5 143 L 227 144.5 L 222.5 146 L 220 144.5 L 224.5 143 Z " /><path fill="rgb(143,203,220)" stroke="rgb(143,203,220)" stroke-width="1" opacity="1" d="M 277.5 143 Q 284.2 142.3 287.5 145 L 289 144.5 Q 289.8 148.3 287.5 149 Q 285.3 148.3 286 150.5 L 287 153 Q 291.7 153.5 294 157.5 L 296.5 162 L 300 164.5 L 301.5 168 L 302 162.5 L 299 161.5 L 300.5 159 L 304 159.5 L 304 161.5 L 305 170.5 Q 302.5 175.5 300 170.5 L 297.5 164 Q 295.3 164.8 296 162.5 L 293 158 L 290 156.5 Q 290.8 154.3 288.5 155 L 275 145.5 L 277.5 143 Z " /><path fill="rgb(143,203,220)" stroke="rgb(143,203,220)" stroke-width="1" opacity="1" d="M 209 144 L 213 144 L 213 145.5 L 214.5 147 Q 216 143.5 217.5 146 L 221 147.5 L 215 150.5 L 215.5 152 L 211 153 L 211 155 Q 207.3 153.5 208 156.5 L 201 164.5 L 200 168 L 196 170 L 196 174 L 194.5 174 Q 192 173 193 168.5 Q 197 166.5 193 164.5 L 193.5 163 L 195.5 166 L 200 165 L 202 160.5 L 200 160 L 200 154.5 Q 202.7 155.1 202 152 L 208.5 152 L 210.5 153 L 213 152 L 214 147.5 L 209 146 L 209 144 Z M 205 153 L 202 154 L 201 157 L 203 160 L 204 156 L 208 155 L 205 153 Z M 195 168 L 196 170 Q 197 167 195 168 Z " /><path fill="rgb(143,203,220)" stroke="rgb(143,203,220)" stroke-width="1" opacity="1" d="M 291.5 152 Q 295.5 151.5 296 154.5 L 295.5 157 L 294 154 L 291.5 152 Z " /><path fill="rgb(143,203,220)" stroke="rgb(143,203,220)" stroke-width="1" opacity="1" d="M 303.5 175 L 306.5 179 L 308.5 176 L 309 179.5 L 307 183.5 Q 309.3 184.8 306.5 186 L 303.5 175 Z " /><path fill="rgb(143,203,220)" stroke="rgb(143,203,220)" stroke-width="1" opacity="1" d="M 318.5 175 L 321 176.5 L 320 189 Q 317 190.3 318 186.5 L 317 185.5 L 317 176.5 L 318.5 175 Z " /><path fill="rgb(143,203,220)" stroke="rgb(143,203,220)" stroke-width="1" opacity="1" d="M 193.5 176 L 194 178.5 Q 191 180.8 192 186 Q 189.3 184.9 190 187.5 L 189 191.5 Q 191.8 193.3 190 199.5 L 189 199.5 L 188.5 192 L 188 208 L 186 207.5 L 186 192.5 Q 188.8 189.5 188 184 L 191 184 L 191 177.5 L 192.5 177 L 193.5 176 Z " /><path fill="rgb(143,203,220)" stroke="rgb(143,203,220)" stroke-width="1" opacity="1" d="M 311.5 176 L 312 178.5 L 311 178.5 L 311.5 176 Z " /><path fill="rgb(143,203,220)" stroke="rgb(143,203,220)" stroke-width="1" opacity="1" d="M 310.5 183 Q 313.5 189 312 199.5 Q 309.5 201 311 206.5 L 311 208.5 L 312 215.5 L 311 215.5 L 309.5 203 L 308 204.5 L 307 216 Q 303.7 214.7 305 219.5 L 304 221.5 L 305 223.5 L 304 223.5 L 303 219.5 L 307 211.5 L 308.5 188 L 309 200 L 311 199.5 L 311 187.5 L 310.5 183 Z " /><path fill="rgb(143,203,220)" stroke="rgb(143,203,220)" stroke-width="1" opacity="1" d="M 184.5 184 L 185 187.5 L 184 187.5 L 184.5 184 Z " /><path fill="rgb(143,203,220)" stroke="rgb(143,203,220)" stroke-width="1" opacity="1" d="M 316.5 192 L 318 192.5 L 318 208 L 314.5 209 L 315 207.5 L 315 193.5 L 316.5 192 Z " /><path fill="rgb(143,203,220)" stroke="rgb(143,203,220)" stroke-width="1" opacity="1" d="M 184.5 203 L 185 207.5 L 184 207.5 L 184.5 203 Z " /><path fill="rgb(143,203,220)" stroke="rgb(143,203,220)" stroke-width="1" opacity="1" d="M 189.5 204 L 192 208.5 L 193 217.5 L 192 217.5 L 191 208 Q 187.2 209.2 189.5 204 Z " /><path fill="rgb(143,203,220)" stroke="rgb(143,203,220)" stroke-width="1" opacity="1" d="M 308.5 213 L 309 215.5 L 308 215.5 L 308.5 213 Z " /><path fill="rgb(143,203,220)" stroke="rgb(143,203,220)" stroke-width="1" opacity="1" d="M 193.5 219 L 195 221.5 L 193.5 224 Q 196.8 222.9 196 225.5 L 201 232.5 L 200 235.5 L 201 235.5 Q 200.3 232.9 203 234 L 204.5 237 L 207.5 239 L 209 242 Q 211.7 240.9 211 243.5 L 214 245 Q 215.1 247.7 212.5 247 L 212.5 248 L 216.5 247 L 219 248.5 L 218.5 250 Q 225.7 250.3 229.5 254 L 240.5 256 L 259.5 256 L 271.5 253 L 284.5 245 Q 288 247 283.5 249 Q 282.3 246.8 281 249.5 L 283 250 L 282 252.5 L 287 254 L 287 256 L 281 256 L 280.5 254 L 278.5 255 Q 277.8 252.2 273.5 253 L 269 254.5 L 275 255.5 L 268.5 256 L 266.5 256 L 263.5 257 L 234.5 257 L 223.5 252 L 219.5 253 L 216.5 256 L 216 253 L 219 252.5 L 218 250 L 212.5 251 L 207 247.5 Q 206.3 243.3 209 242.5 L 205.5 239 L 203.5 241 Q 199.8 241.8 199 239.5 L 197 232.5 L 197.5 231 Q 194.9 231.8 196 228.5 L 195 226 Q 192.3 227.1 193 224.5 L 192 222.5 L 193.5 219 Z M 279 251 L 277 253 L 280 253 Q 281 250 279 251 Z " /><path fill="rgb(143,203,220)" stroke="rgb(143,203,220)" stroke-width="1" opacity="1" d="M 301.5 224 Q 303.8 223.3 303 225.5 L 304 228.5 L 303 228.5 L 301.5 224 Z " /><path fill="rgb(143,203,220)" stroke="rgb(143,203,220)" stroke-width="1" opacity="1" d="M 192.5 227 L 193 229.5 L 192 229.5 L 192.5 227 Z " /><path fill="rgb(143,203,220)" stroke="rgb(143,203,220)" stroke-width="1" opacity="1" d="M 300.5 227 L 303 231.5 L 302.5 233 L 304 233.5 L 304 240 Q 301.3 241.1 302 238.5 L 300.5 234 L 295 236 L 296 239.5 L 294 240.5 L 292 237.5 L 296 232 L 299 230.5 L 300.5 227 Z " /><path fill="rgb(143,203,220)" stroke="rgb(143,203,220)" stroke-width="1" opacity="1" d="M 290.5 239 Q 293.1 238.3 292 241 Q 287.5 239.3 289 244.5 L 287 243.5 L 288 240 L 290.5 239 Z " /><path fill="rgb(143,203,220)" stroke="rgb(143,203,220)" stroke-width="1" opacity="1" d="M 221.5 255 L 226 255.5 L 221.5 256 L 221.5 255 Z " /><path fill="rgb(143,203,220)" stroke="rgb(143,203,220)" stroke-width="1" opacity="1" d="M 207.5 275 L 209.5 275 L 286.5 275 L 287.5 276 L 289 275.5 L 287.5 279 L 208.5 279 L 207 277.5 L 207.5 275 Z " /><path fill="rgb(143,203,220)" stroke="rgb(143,203,220)" stroke-width="1" opacity="1" d="M 208.5 280 L 208.5 282 L 288 281.5 L 287.5 280 L 290 281.5 L 287.5 283 L 208.5 283 L 206 281.5 L 208.5 280 Z " /><path fill="rgb(143,203,220)" stroke="rgb(143,203,220)" stroke-width="1" opacity="1" d="M 196.5 281 Q 201.3 279.7 200 283 L 195.5 283 L 192 285 Q 190.8 282 194.5 283 L 196.5 281 Z " /><path fill="rgb(143,203,220)" stroke="rgb(143,203,220)" stroke-width="1" opacity="1" d="M 296 281 L 304 283 Q 305.1 285.7 302.5 285 Q 301.1 281.8 296 283 L 296 281 Z " /><path fill="rgb(143,203,220)" stroke="rgb(143,203,220)" stroke-width="1" opacity="1" d="M 200.5 284 L 204 284.5 Q 201.9 286.9 196.5 286 L 196.5 285 L 200.5 284 Z " /><path fill="rgb(143,203,220)" stroke="rgb(143,203,220)" stroke-width="1" opacity="1" d="M 208 284 L 287.5 284 L 288 286 L 208.5 286 L 208 284 Z " /><path fill="rgb(143,203,220)" stroke="rgb(143,203,220)" stroke-width="1" opacity="1" d="M 292.5 284 L 300 285.5 L 294.5 286 L 292.5 284 Z " /><path fill="rgb(143,203,220)" stroke="rgb(143,203,220)" stroke-width="1" opacity="1" d="M 160.5 287 L 167 288 L 167 291 L 160.5 291 L 159 288.5 L 160.5 287 Z " /><path fill="rgb(143,203,220)" stroke="rgb(143,203,220)" stroke-width="1" opacity="1" d="M 186 287 L 194 287.5 L 182.5 291 L 179 288.5 L 181.5 288 L 186 289 L 186 287 Z " /><path fill="rgb(143,203,220)" stroke="rgb(143,203,220)" stroke-width="1" opacity="1" d="M 302.5 287 L 310 287.5 L 309.5 289 L 316.5 288 L 316.5 289 L 312.5 291 Q 310.2 288.3 304.5 289 L 302.5 287 Z " /><path fill="rgb(143,203,220)" stroke="rgb(143,203,220)" stroke-width="1" opacity="1" d="M 332.5 287 Q 336.3 286.3 337 288.5 L 335.5 291 Q 330.3 292.3 329 289.5 Q 328.2 286.9 331.5 288 L 332.5 287 Z " /><path fill="rgb(143,203,220)" stroke="rgb(143,203,220)" stroke-width="1" opacity="1" d="M 325.5 288 Q 329.3 287 328 290 L 325.5 288 Z " /><path fill="rgb(143,203,220)" stroke="rgb(143,203,220)" stroke-width="1" opacity="1" d="M 319.5 289 L 320 291 L 315.5 292 L 315.5 291 L 319.5 289 Z " /><path fill="rgb(143,203,220)" stroke="rgb(143,203,220)" stroke-width="1" opacity="1" d="M 171.5 290 Q 178.3 288.7 181 291.5 L 178.5 292 L 176.5 291 L 173 293.5 L 171.5 297 L 166 299 Q 167.1 302.3 163 301 L 164 298.5 L 162 298 Q 163.1 301.3 159 300 Q 157.9 297.3 160.5 298 L 164 296 Q 162.9 298.7 165.5 298 L 167.5 295 L 169 295.5 L 171.5 290 Z " /><path fill="rgb(143,203,220)" stroke="rgb(143,203,220)" stroke-width="1" opacity="1" d="M 321.5 291 Q 326.3 290.3 327 293.5 L 326 295.5 L 327.5 296 L 329 295.5 L 330.5 298 L 333.5 296 L 336 300 L 334 300 Q 335.1 297.3 332.5 298 L 333 299.5 L 332.5 302 L 330 301 Q 331.1 298.3 328.5 299 Q 327.4 296.3 324 297 L 321.5 293 L 320 292.5 L 321.5 291 Z " /><path fill="rgb(143,203,220)" stroke="rgb(143,203,220)" stroke-width="1" opacity="1" d="M 336.5 302 L 341.5 308 Q 344.5 306.5 341.5 305 L 340 304.5 L 344 304 Q 342.9 307.3 347 306 L 347 311.5 L 346 314 Q 349.3 312.9 348 317 Q 345.3 318.1 346 315.5 L 343 312.5 L 344 311.5 L 343.5 309 L 340.5 310 L 337.5 306 L 334 303.5 L 336.5 302 Z " /><path fill="rgb(143,203,220)" stroke="rgb(143,203,220)" stroke-width="1" opacity="1" d="M 159.5 303 L 162 303.5 L 157 307.5 L 155.5 310 L 152.5 309 L 152 311.5 L 153 312.5 L 150 315.5 Q 150.7 318.1 148 317 L 148 314 Q 150.7 315.1 150 312.5 L 149 306 Q 153.1 307.3 152 304 L 155.5 304 L 155.5 305 L 153 306.5 L 154.5 308 L 159.5 303 Z " /><path fill="rgb(143,203,220)" stroke="rgb(143,203,220)" stroke-width="1" opacity="1" d="M 144 312 L 147 312.5 L 145 313 L 144.5 317 L 144 312 Z " /><path fill="rgb(143,203,220)" stroke="rgb(143,203,220)" stroke-width="1" opacity="1" d="M 349.5 312 Q 354.1 310.6 352 316.5 L 351 316.5 Q 352.5 312.1 349.5 313 L 349.5 312 Z " /><path fill="rgb(143,203,220)" stroke="rgb(143,203,220)" stroke-width="1" opacity="1" d="M 146.5 318 Q 149.3 319.3 147 320.5 L 144.5 325 L 144 322.5 L 146.5 318 Z " /><path fill="rgb(143,203,220)" stroke="rgb(143,203,220)" stroke-width="1" opacity="1" d="M 349.5 318 L 352 324.5 L 351 324.5 L 348 319.5 L 349.5 318 Z " /><path fill="rgb(143,203,220)" stroke="rgb(143,203,220)" stroke-width="1" opacity="1" d="M 128.5 319 L 133 320 L 135 325.5 Q 133.3 323.9 131.5 327 Q 127.1 328.5 128 325.5 L 127 320.5 L 128.5 319 Z " /><path fill="rgb(143,203,220)" stroke="rgb(143,203,220)" stroke-width="1" opacity="1" d="M 366.5 319 L 369 320.5 L 368 327 Q 363.8 328 362.5 325 L 361 325.5 L 363 320 L 366.5 319 Z " /><path fill="rgb(143,203,220)" stroke="rgb(143,203,220)" stroke-width="1" opacity="1" d="M 137 328 L 141 330 L 141.5 328 L 142 331.5 L 138 338.5 Q 138.8 344.3 136.5 347 Q 133.7 344.3 135 337.5 L 136.5 332 L 137 334 Q 140.3 335.1 139 331 Q 135.7 332.1 137 328 Z " /><path fill="rgb(143,203,220)" stroke="rgb(143,203,220)" stroke-width="1" opacity="1" d="M 354.5 328 L 355 330 L 359 328 L 359 331 Q 355.7 329.9 357 334 Q 359.7 335.1 359 332.5 L 360 332.5 L 361 344.5 L 359.5 347 Q 357.3 344.3 358 338.5 L 354 331.5 L 354.5 328 Z " /><path fill="rgb(143,203,220)" stroke="rgb(143,203,220)" stroke-width="1" opacity="1" d="M 130.5 351 L 136 351 L 136 360.5 L 136.5 361 L 360 361 L 360 351 L 365.5 351 Q 367.8 351.8 367 355.5 L 364 357.5 L 366 358 L 368 361.5 L 367 365.5 L 367.5 367 L 366 366.5 Q 366.6 369.3 360.5 368 L 359.5 367 L 136.5 367 L 130 368 L 129.5 366 L 128 366.5 L 129 362.5 Q 126.5 361 130 359.5 Q 129.3 357.3 131.5 358 L 131.5 357 L 129 355.5 Q 128.3 351.8 130.5 351 Z M 137 362 L 139 364 L 141 363 L 145 364 L 352 364 L 353 363 L 357 364 L 360 363 L 137 362 Z M 137 365 L 137 366 L 360 366 L 137 365 Z " /><path fill="rgb(145,204,222)" stroke="rgb(145,204,222)" stroke-width="1" opacity="1" d="M 0 0 L 500 0 L 500 500 L 0 500 L 0 0 Z M 242 130 L 239 133 L 241 135 L 242 134 L 257 134 L 257 130 L 242 130 Z M 265 136 L 262 138 L 265 138 L 265 136 Z M 237 137 L 237 138 Q 241 137 240 140 L 236 141 L 240 142 L 236 143 L 233 143 L 235 142 L 235 141 Q 231 140 232 143 L 229 143 L 229 145 L 217 151 L 215 151 L 221 148 L 217 146 L 217 148 L 216 147 L 213 149 L 214 153 L 210 156 L 205 162 L 201 165 L 208 155 L 204 156 L 200 164 Q 201 167 197 165 L 195 168 Q 197 167 196 170 Q 199 171 198 169 L 199 169 L 193 184 L 192 184 L 194 177 L 193 177 L 191 178 L 191 184 L 188 184 Q 189 190 186 193 L 186 208 L 188 208 L 188 193 L 190 188 Q 189 185 192 186 L 191 193 L 191 206 L 192 207 L 191 209 Q 190 215 193 218 L 194 216 L 195 220 L 194 219 L 192 224 L 196 221 Q 199 231 206 237 L 205 237 L 203 234 Q 200 233 201 236 L 200 236 L 201 233 L 196 226 Q 197 222 193 224 Q 192 227 195 226 L 196 229 Q 195 232 198 231 L 197 233 L 199 240 L 201 239 L 201 241 Q 206 242 207 238 L 208 239 L 207 239 L 209 242 L 209 241 L 210 241 L 207 245 L 207 248 L 209 247 L 208 249 L 213 251 Q 218 252 219 249 L 217 247 L 213 248 L 213 247 Q 215 248 214 245 L 211 244 L 212 242 Q 216 248 224 250 L 224 251 L 218 250 L 220 253 L 224 252 L 227 254 L 229 254 L 226 252 L 226 251 L 232 254 L 229 255 L 235 257 L 264 257 L 267 256 L 269 256 L 275 256 L 266 254 L 278 249 L 279 249 L 270 253 L 270 254 Q 276 254 280 251 L 283 248 L 284 249 Q 288 247 285 245 L 281 248 L 284 244 L 286 244 Q 285 241 288 242 L 287 244 L 289 245 L 289 241 Q 293 242 292 239 L 290 239 L 293 238 L 294 241 L 296 240 L 295 236 L 297 236 L 296 234 L 292 237 L 296 233 L 298 235 Q 303 235 303 232 L 301 228 L 299 228 Q 301 224 303 226 L 301 223 Q 302 220 304 222 L 305 220 Q 304 215 307 216 L 307 212 L 306 215 L 305 215 L 307 205 L 307 212 L 308 212 L 306 187 Q 309 185 307 184 L 309 180 L 309 176 L 307 179 L 305 177 Q 304 174 303 176 L 300 172 L 303 173 L 305 171 L 304 162 L 304 160 L 301 159 L 299 162 L 302 163 L 302 168 L 300 165 L 296 162 Q 295 165 298 164 L 300 169 L 300 170 L 298 168 Q 299 165 296 166 L 293 161 L 279 149 L 279 148 L 286 152 L 287 153 L 286 151 Q 285 148 288 149 Q 290 148 289 145 L 288 145 Q 284 142 278 143 L 275 146 L 277 148 L 273 146 L 273 145 L 271 144 L 269 140 L 265 141 L 262 140 L 262 142 L 246 141 L 243 139 L 245 138 L 237 137 Z M 268 137 Q 267 141 272 139 Q 273 135 268 137 Z M 233 138 L 233 139 L 235 139 L 233 138 Z M 249 139 L 249 140 L 260 140 L 249 139 Z M 225 143 L 220 145 L 223 146 L 227 145 L 225 143 Z M 209 144 L 209 146 L 214 147 L 213 146 L 213 144 L 209 144 Z M 202 152 L 202 154 L 205 153 L 209 155 Q 212 156 211 153 Q 208 151 202 152 Z M 292 152 L 294 154 L 296 157 L 296 155 Q 296 151 292 152 Z M 288 153 L 290 155 L 292 158 Q 294 157 293 160 L 295 161 L 294 158 L 288 153 Z M 200 154 L 200 160 L 202 160 L 201 159 L 202 156 Q 203 153 200 154 Z M 194 163 L 193 165 L 195 166 L 194 163 Z M 194 168 L 193 173 L 196 174 Q 197 169 194 168 Z M 319 175 L 317 177 L 317 186 L 318 187 Q 317 190 320 189 L 321 177 L 319 175 Z M 312 176 L 311 179 L 312 179 L 312 176 Z M 311 183 L 310 187 L 311 187 L 311 183 Z M 185 184 L 184 188 L 185 188 L 185 184 Z M 312 187 L 311 200 L 312 200 L 312 187 Z M 309 188 L 308 204 L 310 203 L 311 212 L 311 209 L 311 207 Q 313 199 309 200 L 309 188 Z M 190 192 L 189 200 L 190 200 L 190 192 Z M 317 192 L 315 194 L 315 208 L 318 208 L 318 193 L 317 192 Z M 185 203 L 184 208 L 185 208 L 185 203 Z M 190 204 Q 187 209 191 208 L 190 204 Z M 312 212 L 311 216 L 312 216 L 312 212 Z M 309 213 L 308 216 L 309 216 L 309 213 Z M 304 226 L 303 229 L 304 229 L 304 226 Z M 193 227 L 192 230 L 193 230 L 193 227 Z M 303 233 L 301 235 L 302 239 Q 301 241 304 240 L 304 234 L 303 233 Z M 282 250 L 280 252 Q 281 254 278 253 L 279 255 L 283 252 Q 284 249 282 250 Z M 216 253 L 216 256 L 219 254 L 216 253 Z M 283 253 L 281 256 L 287 256 L 287 254 L 283 253 Z M 222 255 L 222 256 L 226 256 L 222 255 Z M 208 275 L 207 278 L 209 279 L 288 279 L 289 276 L 288 276 L 287 275 L 210 275 L 208 275 Z M 197 281 L 195 283 L 200 283 Q 201 280 197 281 Z M 296 281 L 296 283 L 301 283 Q 300 280 296 281 Z M 209 282 L 209 283 L 288 283 L 209 282 Z M 192 283 L 192 285 L 195 284 L 192 283 Z M 302 283 L 304 285 Q 305 282 302 283 Z M 201 284 L 197 285 L 197 286 Q 202 287 204 285 L 201 284 Z M 208 284 L 208 286 L 196 288 L 194 287 L 187 287 L 186 289 L 182 288 L 179 289 L 183 292 L 174 296 L 172 297 L 173 294 L 177 291 L 179 292 L 181 292 Q 178 289 172 290 L 169 296 L 168 295 L 167 297 L 165 298 L 163 301 Q 167 302 166 299 L 170 297 L 171 298 L 165 302 L 148 321 L 147 318 L 144 323 L 145 325 L 145 324 L 147 323 L 143 331 L 142 328 L 141 330 L 137 328 Q 136 332 139 331 Q 140 335 137 334 L 137 332 L 135 338 L 135 345 Q 138 346 137 352 L 136 351 Q 130 350 129 353 Q 128 356 131 357 L 134 355 L 132 358 Q 129 357 130 360 L 129 363 L 130 368 L 137 367 L 360 367 L 366 368 L 367 363 L 366 360 Q 367 357 365 358 L 363 355 L 366 357 Q 368 356 367 353 Q 366 350 361 351 L 359 352 Q 358 346 361 345 L 360 333 L 359 333 Q 360 335 357 334 Q 356 330 359 331 L 359 328 L 355 330 L 355 328 L 354 331 L 350 324 L 350 322 L 351 325 L 352 325 L 350 318 L 349 321 L 344 315 Q 332 299 313 292 L 317 289 L 317 288 L 309 290 L 310 287 Q 303 285 302 288 L 294 286 Q 287 288 288 284 L 208 284 Z M 293 284 L 295 286 L 300 286 L 293 284 Z M 161 287 L 159 289 L 161 291 L 167 291 L 167 288 L 161 287 Z M 333 287 L 332 288 Q 328 287 329 290 Q 330 292 336 291 L 337 289 Q 336 286 333 287 Z M 326 288 L 328 290 Q 329 287 326 288 Z M 320 289 L 316 291 L 316 292 L 320 291 L 320 289 Z M 322 291 L 320 293 L 322 293 L 324 297 Q 327 296 329 299 Q 331 298 330 301 L 333 302 L 333 300 L 331 298 L 329 296 L 328 296 L 326 296 L 327 294 Q 326 290 322 291 Z M 163 296 L 161 298 Q 158 297 159 300 L 162 300 Q 161 297 164 298 Q 165 295 163 296 Z M 332 296 L 334 300 Q 337 301 336 299 L 332 296 Z M 337 302 L 334 304 L 338 306 L 341 310 L 344 309 L 344 312 L 343 313 L 346 316 Q 345 318 348 317 Q 349 313 346 314 L 347 312 L 347 306 Q 343 307 344 304 L 340 305 L 342 305 Q 345 307 342 308 L 337 302 Z M 160 303 L 155 308 L 153 307 L 156 305 L 156 304 L 152 304 Q 153 307 149 306 L 150 313 Q 151 315 148 314 L 148 317 Q 151 318 150 316 L 153 313 L 152 312 L 153 309 L 156 310 L 157 308 L 162 304 L 160 303 Z M 144 312 L 145 317 L 145 313 L 147 313 L 144 312 Z M 350 312 L 350 313 Q 353 312 351 317 L 352 317 Q 354 311 350 312 Z M 129 319 L 127 321 L 128 327 Q 133 328 134 325 L 133 320 L 129 319 Z M 367 319 L 363 320 L 362 325 Q 363 328 368 327 L 369 321 L 367 319 Z " /><path fill="rgb(145,204,222)" stroke="rgb(145,204,222)" stroke-width="1" opacity="1" d="M 263.5 142 Q 267.3 141.3 268 143.5 L 266.5 144 L 263.5 143 L 263.5 142 Z " /><path fill="rgb(145,204,222)" stroke="rgb(145,204,222)" stroke-width="1" opacity="1" d="M 304.5 180 Q 306.8 180.8 306 184.5 L 305 184.5 L 304.5 180 Z " /><path fill="rgb(145,204,222)" stroke="rgb(145,204,222)" stroke-width="1" opacity="1" d="M 298.5 229 L 299 230.5 L 297 231.5 L 298.5 229 Z " /><path fill="rgb(145,204,222)" stroke="rgb(145,204,222)" stroke-width="1" opacity="1" d="M 256.5 255 L 260 255.5 L 256.5 256 L 256.5 255 Z " /><path fill="rgb(145,204,222)" stroke="rgb(145,204,222)" stroke-width="1" opacity="1" d="M 141.5 332 L 141 333.5 L 138.5 342 L 138 338.5 L 141.5 332 Z " /><path fill="rgb(145,204,222)" stroke="rgb(145,204,222)" stroke-width="1" opacity="1" d="M 354.5 332 L 358 338.5 L 358 341.5 L 357 341.5 L 354.5 332 Z " /><path fill="rgb(145,204,222)" stroke="rgb(145,204,222)" stroke-width="1" opacity="1" d="M 131.5 359 L 134 360.5 L 132.5 360 L 131.5 359 Z " /><path fill="rgb(145,204,222)" stroke="rgb(145,204,222)" stroke-width="1" opacity="1" d="M 363.5 359 L 365 359.5 L 362.5 361 L 363.5 359 Z " /><path fill="rgb(145,204,222)" stroke="rgb(145,204,222)" stroke-width="1" opacity="1" d="M 135.5 361 L 136.5 362 L 359.5 362 L 361 361.5 L 356.5 364 L 352.5 363 L 351.5 364 L 144.5 364 L 140.5 363 L 138.5 364 L 135.5 361 Z " /><path fill="rgb(145,204,222)" stroke="rgb(145,204,222)" stroke-width="1" opacity="1" d="M 136.5 365 L 360 365.5 L 136.5 366 L 136.5 365 Z " /><path fill="rgb(187,224,237)" stroke="rgb(187,224,237)" stroke-width="1" opacity="1" d="M 240.5 141 L 257.5 141 L 271.5 145 Q 284.6 150.4 293 160.5 L 296 166 Q 298.7 164.9 298 167.5 L 306 185.5 L 307 204.5 L 306 204.5 L 306 193.5 Q 302.8 194.4 304 186.5 Q 301.5 185 303 179.5 L 297.5 170 Q 294.5 170.9 296 166.5 L 290.5 160 Q 286.8 161.3 288 157.5 L 281.5 152 L 278 152 L 276.5 149 L 268.5 145 L 255 143.5 L 255.5 142 L 240.5 142 L 233 146.5 L 232 150 L 226.5 149 L 224 150.5 L 225 148.5 L 223.5 148 L 220 150.5 Q 220.8 153.1 217.5 152 L 213 154 L 211.5 157 L 205 162.5 L 202 166.5 L 202.5 168 L 201 168 L 201 171 Q 198.3 169.9 199 172.5 L 197 175.5 Q 199.5 177 196 178.5 L 197 184 L 194.5 183 L 192.5 190 L 192 184.5 Q 197.3 166.8 209.5 156 Q 221.3 144.8 240.5 141 Z " /><path fill="rgb(187,224,237)" stroke="rgb(187,224,237)" stroke-width="1" opacity="1" d="M 271.5 148 L 273.5 151 Q 271.3 151.8 272 149.5 L 271.5 148 Z " /><path fill="rgb(187,224,237)" stroke="rgb(187,224,237)" stroke-width="1" opacity="1" d="M 265.5 151 L 268 151.5 L 265.5 152 L 265.5 151 Z " /><path fill="rgb(187,224,237)" stroke="rgb(187,224,237)" stroke-width="1" opacity="1" d="M 272 153 L 275 154.5 Q 275.7 157.5 272 156 L 272 153 Z " /><path fill="rgb(187,224,237)" stroke="rgb(187,224,237)" stroke-width="1" opacity="1" d="M 225 158 L 229 158.5 L 225 160 L 225 158 Z " /><path fill="rgb(187,224,237)" stroke="rgb(187,224,237)" stroke-width="1" opacity="1" d="M 292 173 L 295 174.5 Q 295.7 177.5 292 176 L 292 173 Z " /><path fill="rgb(187,224,237)" stroke="rgb(187,224,237)" stroke-width="1" opacity="1" d="M 202 174 Q 207.2 172.3 206 176 Q 200.8 177.7 202 174 Z " /><path fill="rgb(187,224,237)" stroke="rgb(187,224,237)" stroke-width="1" opacity="1" d="M 297.5 174 L 298.5 176 Q 295.7 176.7 297.5 174 Z " /><path fill="rgb(187,224,237)" stroke="rgb(187,224,237)" stroke-width="1" opacity="1" d="M 296.5 180 L 297 183.5 L 296 183.5 L 296.5 180 Z " /><path fill="rgb(187,224,237)" stroke="rgb(187,224,237)" stroke-width="1" opacity="1" d="M 191 192 L 193 192.5 L 193 208.5 L 195.5 216 L 197.5 215 L 197 216.5 L 196 219.5 L 200 228 Q 202.7 226.9 202 229.5 L 206.5 235 L 207.5 233 L 208 234.5 L 207 237 L 209 237 L 209 239 L 211 239 Q 209.9 241.7 212.5 241 L 214.5 240 L 214.5 241 L 213 241.5 L 224.5 250 L 232 252 Q 230.9 249.3 233.5 250 L 240 252.5 L 239.5 254 L 254.5 255 L 264 252 L 264.5 250 Q 265.7 252.3 270.5 251 L 270.5 250 L 269 249.5 L 271.5 249 L 273 249.5 L 273.5 248 L 274.5 249 L 279.5 244 Q 281 246.5 282.5 243 L 288 240 L 286 244 L 283.5 244 Q 269.8 257.8 240.5 256 Q 221.7 252.1 210 242 L 210 240 L 208 240 L 208 238 Q 205.3 239.1 206 236.5 L 201 231.5 L 193 215.5 L 191 205.5 L 191 192 Z M 233 252 L 233 253 L 235 253 L 233 252 Z " /><path fill="rgb(187,224,237)" stroke="rgb(187,224,237)" stroke-width="1" opacity="1" d="M 305.5 206 L 306 211.5 L 303 220.5 L 301 222.5 L 301 225.5 L 292 238 Q 289.3 236.9 290 239.5 L 289 239.5 L 291 235 Q 293.7 236.1 293 233.5 L 296.5 228 Q 298.8 228.8 298 226.5 L 299.5 224 L 298 223.5 L 298 216.5 L 299 216.5 Q 298.3 219.1 301 218 L 300 215.5 L 304 212.5 L 305.5 206 Z " /><path fill="rgb(187,224,237)" stroke="rgb(187,224,237)" stroke-width="1" opacity="1" d="M 289.5 219 L 290 223 Q 287 224.3 288 220.5 L 289.5 219 Z " /><path fill="rgb(187,224,237)" stroke="rgb(187,224,237)" stroke-width="1" opacity="1" d="M 206.5 220 L 208 227 Q 204.7 228.3 206 223.5 L 205 221.5 L 206.5 220 Z " /><path fill="rgb(187,224,237)" stroke="rgb(187,224,237)" stroke-width="1" opacity="1" d="M 272.5 240 L 275 241.5 L 269.5 243 L 268.5 241 L 272.5 240 Z " /><path fill="rgb(187,224,237)" stroke="rgb(187,224,237)" stroke-width="1" opacity="1" d="M 244.5 251 L 248 251.5 L 244.5 252 L 244.5 251 Z " /><path fill="rgb(187,224,237)" stroke="rgb(187,224,237)" stroke-width="1" opacity="1" d="M 202.5 286 L 293.5 286 Q 294.7 288.3 299.5 287 Q 328.4 294.1 344 314.5 Q 358.8 331.5 360 361 L 136.5 361 L 136 360.5 L 136 352.5 L 138 342.5 L 144 326.5 Q 152 312 164.5 302 L 178.5 293 L 188.5 289 L 202.5 286 Z M 206 287 Q 201 290 193 289 L 188 291 L 184 295 L 183 294 Q 179 293 180 296 L 182 297 L 178 299 L 176 296 L 170 301 Q 167 300 168 304 L 167 303 L 162 306 L 159 310 L 156 312 L 158 312 L 158 313 Q 154 312 155 315 L 150 320 L 151 321 L 149 321 L 149 324 L 144 331 L 146 335 Q 147 338 143 336 L 142 342 L 142 344 L 141 344 L 138 349 L 139 354 L 138 359 L 141 357 L 141 359 L 355 359 L 355 358 L 358 359 L 358 355 L 358 353 L 357 346 L 355 344 L 355 343 L 353 339 Q 354 334 350 336 L 352 332 Q 351 326 347 324 Q 348 320 346 321 L 346 320 L 341 313 L 338 313 L 340 312 L 339 311 L 337 309 L 331 303 L 329 304 L 324 298 Q 320 299 321 297 L 319 296 Q 316 297 317 294 L 314 294 L 312 294 Q 309 295 310 292 L 306 292 L 306 291 L 304 289 Q 295 290 291 287 L 206 287 Z " /><path fill="rgb(187,224,237)" stroke="rgb(187,224,237)" stroke-width="1" opacity="1" d="M 305.5 299 Q 311.2 297.4 309 303 L 305.5 304 L 304 300.5 L 305.5 299 Z " /><path fill="rgb(187,224,237)" stroke="rgb(187,224,237)" stroke-width="1" opacity="1" d="M 165.5 307 L 166 309 L 164 308.5 L 165.5 307 Z " /><path fill="rgb(187,224,237)" stroke="rgb(187,224,237)" stroke-width="1" opacity="1" d="M 330.5 307 L 331.5 309 Q 328.7 309.7 330.5 307 Z " /><path fill="rgb(187,224,237)" stroke="rgb(187,224,237)" stroke-width="1" opacity="1" d="M 154.5 332 L 155 334.5 Q 153.5 337.5 152 334.5 L 154.5 332 Z " /><path fill="rgb(187,224,237)" stroke="rgb(187,224,237)" stroke-width="1" opacity="1" d="M 341.5 332 Q 346 334 342.5 336 Q 340 335 341.5 332 Z " /><path fill="rgb(187,224,237)" stroke="rgb(187,224,237)" stroke-width="1" opacity="1" d="M 143.5 348 L 144 351 L 142 350.5 L 143.5 348 Z " /><path fill="rgb(187,224,237)" stroke="rgb(187,224,237)" stroke-width="1" opacity="1" d="M 352.5 348 L 354 350.5 L 352 351 L 352.5 348 Z " /><path fill="rgb(192,223,237)" stroke="rgb(192,223,237)" stroke-width="1" opacity="1" d="M 240.5 143 L 247.5 144 L 248.5 143 L 255 143 L 254.5 145 L 240.5 145 L 240 146.5 L 237 148 L 238.5 144 L 240.5 143 Z " /><path fill="rgb(192,223,237)" stroke="rgb(192,223,237)" stroke-width="1" opacity="1" d="M 271.5 147 L 271.5 150 L 269 148.5 L 271.5 147 Z " /><path fill="rgb(192,223,237)" stroke="rgb(192,223,237)" stroke-width="1" opacity="1" d="M 222 149 Q 224.7 147.9 224 150.5 Q 225.8 148.9 227.5 152 Q 233.6 150.8 233 153.5 Q 231.3 156.8 224.5 155 L 222.5 154 L 221 155.5 L 224 158.5 Q 224.6 161.3 218.5 160 L 216 159 L 215.5 157 L 211.5 160 L 212.5 158 Q 214.8 158.8 214 156.5 L 216.5 153 L 222 151 L 222 149 Z " /><path fill="rgb(192,223,237)" stroke="rgb(192,223,237)" stroke-width="1" opacity="1" d="M 276.5 151 L 279.5 152 L 287 159.5 L 285.5 159 Q 283.3 159.8 284 157.5 L 282 157.5 L 280.5 155 L 278.5 160 Q 270.9 161.5 272 158 Q 276.7 159 278 155.5 L 276.5 151 Z " /><path fill="rgb(192,223,237)" stroke="rgb(192,223,237)" stroke-width="1" opacity="1" d="M 237 158 Q 240 157 239 160 Q 236 161 237 158 Z " /><path fill="rgb(192,223,237)" stroke="rgb(192,223,237)" stroke-width="1" opacity="1" d="M 288.5 161 L 296 168.5 L 297 171.5 L 295.5 171 L 292.5 170 Q 289 171.3 290 176 Q 286.5 177.1 288 169.5 L 293 167.5 L 290 165.5 L 290.5 164 Q 288.3 164.8 289 162.5 L 288.5 161 Z " /><path fill="rgb(192,223,237)" stroke="rgb(192,223,237)" stroke-width="1" opacity="1" d="M 206.5 165 L 205 167.5 L 206 168.5 L 204.5 172 L 201 170.5 L 204.5 166 L 206.5 165 Z " /><path fill="rgb(192,223,237)" stroke="rgb(192,223,237)" stroke-width="1" opacity="1" d="M 198.5 176 L 199.5 178 L 200.5 176 L 201 182 L 198 180.5 L 197 177.5 L 198.5 176 Z " /><path fill="rgb(192,223,237)" stroke="rgb(192,223,237)" stroke-width="1" opacity="1" d="M 299 182 L 303 183.5 L 301.5 184 L 299 183.5 L 299 182 Z " /><path fill="rgb(192,223,237)" stroke="rgb(192,223,237)" stroke-width="1" opacity="1" d="M 197.5 184 L 199 184 L 199 189 L 196 187.5 L 197.5 184 Z " /><path fill="rgb(192,223,237)" stroke="rgb(192,223,237)" stroke-width="1" opacity="1" d="M 206 186 L 208 186 L 208 192 Q 203.5 193.8 205 188.5 L 206 186 Z " /><path fill="rgb(192,223,237)" stroke="rgb(192,223,237)" stroke-width="1" opacity="1" d="M 193.5 188 L 196 189 Q 197.3 193.1 194 192 L 193.5 188 Z " /><path fill="rgb(192,223,237)" stroke="rgb(192,223,237)" stroke-width="1" opacity="1" d="M 304.5 193 L 305 199.5 L 304 199.5 L 304.5 193 Z " /><path fill="rgb(192,223,237)" stroke="rgb(192,223,237)" stroke-width="1" opacity="1" d="M 195.5 208 L 197 208 L 197 213 L 199 213 L 199.5 210 L 202 222.5 Q 206.9 225.1 207.5 232 L 208.5 230 L 209 233 Q 205.2 233.8 204 230.5 L 199 222 L 197 221.5 L 199 216.5 L 196 212.5 L 195.5 208 Z " /><path fill="rgb(192,223,237)" stroke="rgb(192,223,237)" stroke-width="1" opacity="1" d="M 206.5 208 L 208 208.5 L 208 215 Q 204.7 216.3 206 211.5 L 205 209.5 L 206.5 208 Z " /><path fill="rgb(192,223,237)" stroke="rgb(192,223,237)" stroke-width="1" opacity="1" d="M 301.5 208 Q 304.8 206.9 304 209.5 L 300 211 L 301.5 208 Z " /><path fill="rgb(192,223,237)" stroke="rgb(192,223,237)" stroke-width="1" opacity="1" d="M 288 209 Q 291 208 290 211 Q 287 212 288 209 Z " /><path fill="rgb(192,223,237)" stroke="rgb(192,223,237)" stroke-width="1" opacity="1" d="M 294.5 215 Q 297.5 214.1 296 218.5 L 299 226 L 295 227 L 293.5 233 L 290 232 L 289 228.5 Q 290.4 225.8 295 227 Q 295.8 223.6 293 222.5 L 293 216.5 L 294.5 215 Z " /><path fill="rgb(192,223,237)" stroke="rgb(192,223,237)" stroke-width="1" opacity="1" d="M 288 233 Q 291.8 231.5 291 234.5 L 289 234.5 L 288.5 236 L 288 233 Z " /><path fill="rgb(192,223,237)" stroke="rgb(192,223,237)" stroke-width="1" opacity="1" d="M 215 239 L 218 239 Q 216.9 241.7 219.5 241 L 224 244 L 225 240 L 236.5 240 L 238 241.5 L 229 242 Q 227.9 245.5 235.5 244 L 240 246.5 L 241 248.5 L 234.5 251 L 234.5 249 L 231.5 250 L 231.5 248 L 229.5 249 L 228.5 246 L 223.5 248 L 215 241.5 L 215 239 Z " /><path fill="rgb(192,223,237)" stroke="rgb(192,223,237)" stroke-width="1" opacity="1" d="M 256 240 L 262.5 240 L 263 242 L 256 243 L 256 240 Z " /><path fill="rgb(192,223,237)" stroke="rgb(192,223,237)" stroke-width="1" opacity="1" d="M 278 240 L 283 240.5 L 278 242 L 278 240 Z " /><path fill="rgb(192,223,237)" stroke="rgb(192,223,237)" stroke-width="1" opacity="1" d="M 268.5 246 Q 272.9 244.5 272 247.5 L 272.5 249 L 268.5 248 L 269 249.5 Q 269.9 252.5 265.5 251 L 265.5 250 L 267 249.5 L 264 247.5 L 268.5 246 Z " /><path fill="rgb(192,223,237)" stroke="rgb(192,223,237)" stroke-width="1" opacity="1" d="M 248 248 L 252 248 L 252 249.5 Q 249.8 254.3 241.5 253 L 240.5 251 L 247.5 252 L 248 249.5 L 248 248 Z " /><path fill="rgb(192,223,237)" stroke="rgb(192,223,237)" stroke-width="1" opacity="1" d="M 256 249 L 261 250 L 261 252 L 256 252 L 256 253.5 L 252.5 255 L 254.5 252 Q 257.5 252.7 256 249 Z " /><path fill="rgb(192,223,237)" stroke="rgb(192,223,237)" stroke-width="1" opacity="1" d="M 185.5 293 L 192.5 293 L 193 295.5 Q 192 298 187.5 297 L 183 295.5 L 187 294.5 L 185.5 293 Z M 189 295 L 189 296 L 192 296 L 189 295 Z " /><path fill="rgb(192,223,237)" stroke="rgb(192,223,237)" stroke-width="1" opacity="1" d="M 309.5 293 L 308.5 295 L 304 294.5 L 309.5 293 Z " /><path fill="rgb(192,223,237)" stroke="rgb(192,223,237)" stroke-width="1" opacity="1" d="M 310.5 295 L 313 295.5 L 310.5 296 L 310.5 295 Z " /><path fill="rgb(192,223,237)" stroke="rgb(192,223,237)" stroke-width="1" opacity="1" d="M 174.5 297 L 176 301 Q 173 300 174 303 L 171.5 303 L 170.5 301 L 174 301 L 174.5 297 Z " /><path fill="rgb(192,223,237)" stroke="rgb(192,223,237)" stroke-width="1" opacity="1" d="M 320 298 L 322 298.5 L 320 299.5 L 320 298 Z " /><path fill="rgb(192,223,237)" stroke="rgb(192,223,237)" stroke-width="1" opacity="1" d="M 317.5 301 L 320 302.5 L 319.5 304 L 313 304 Q 311.7 300.7 316.5 302 L 317.5 301 Z " /><path fill="rgb(192,223,237)" stroke="rgb(192,223,237)" stroke-width="1" opacity="1" d="M 322.5 301 L 326 301.5 L 322.5 302 L 322.5 301 Z " /><path fill="rgb(192,223,237)" stroke="rgb(192,223,237)" stroke-width="1" opacity="1" d="M 168.5 303 L 170 303.5 L 168 304 L 166.5 308 Q 165.3 305.8 164 308.5 L 168 311.5 L 165 312 L 165 310 Q 162.3 311.1 163 308.5 L 166.5 304 L 168.5 303 Z " /><path fill="rgb(192,223,237)" stroke="rgb(192,223,237)" stroke-width="1" opacity="1" d="M 326.5 303 L 331 305.5 L 333 310 Q 330 309 331 312 L 328.5 312 L 330.5 309 L 332 308.5 L 328 306.5 Q 329.1 303.2 326.5 304 L 326.5 303 Z " /><path fill="rgb(192,223,237)" stroke="rgb(192,223,237)" stroke-width="1" opacity="1" d="M 161.5 309 L 160.5 311 L 161.5 309 Z " /><path fill="rgb(192,223,237)" stroke="rgb(192,223,237)" stroke-width="1" opacity="1" d="M 334.5 309 L 335.5 311 L 334.5 309 Z " /><path fill="rgb(192,223,237)" stroke="rgb(192,223,237)" stroke-width="1" opacity="1" d="M 158.5 311 L 161 312 L 160.5 314 Q 159.3 311.8 158 314.5 L 156.5 318 Q 153.9 317.3 155 320 L 153 320 L 153 322.5 L 154 325.5 L 153 329.5 L 149.5 333 L 145 329.5 L 153.5 317 L 157 314.5 L 156.5 313 Q 159 313.7 158.5 311 Z M 152 322 L 151 325 L 152 325 L 152 322 Z " /><path fill="rgb(192,223,237)" stroke="rgb(192,223,237)" stroke-width="1" opacity="1" d="M 337.5 311 L 338 313 L 340 313.5 Q 337.3 315.2 341.5 317 L 344 318.5 L 351 329.5 L 346.5 333 L 343 329.5 L 342 323.5 L 343 320 L 341 320 Q 342.1 317.3 339.5 318 L 336.5 313 L 335 313.5 Q 334.3 311.3 336.5 312 L 337.5 311 Z M 345 322 L 344 325 L 345 325 L 345 322 Z " /><path fill="rgb(192,223,237)" stroke="rgb(192,223,237)" stroke-width="1" opacity="1" d="M 159.5 331 L 160 336 Q 156.2 337.5 157 334.5 L 159.5 331 Z " /><path fill="rgb(192,223,237)" stroke="rgb(192,223,237)" stroke-width="1" opacity="1" d="M 336.5 331 L 339 336 Q 333.6 337.7 336.5 331 Z " /><path fill="rgb(192,223,237)" stroke="rgb(192,223,237)" stroke-width="1" opacity="1" d="M 142.5 339 L 144 341.5 L 142 340.5 L 142.5 339 Z " /><path fill="rgb(192,223,237)" stroke="rgb(192,223,237)" stroke-width="1" opacity="1" d="M 353.5 339 L 354 340.5 L 352 341.5 L 353.5 339 Z " /><path fill="rgb(192,223,237)" stroke="rgb(192,223,237)" stroke-width="1" opacity="1" d="M 140 346 Q 144 344.6 142 351.5 L 141 354.5 L 145.5 351 L 350.5 351 L 354.5 355 L 355 352.5 L 354 346 Q 356.7 344.9 356 347.5 L 357 351.5 L 357 353.5 L 356.5 358 L 354 357.5 L 353.5 355 L 352.5 357 L 352 354 L 144.5 354 L 144 356.5 L 143 356.5 L 142.5 355 L 141.5 358 L 139 357.5 L 140 352.5 L 139 348.5 L 140 346 Z " /><path fill="rgb(192,224,237)" stroke="rgb(192,224,237)" stroke-width="1" opacity="1" d="M 240.5 142 L 256 142.5 L 245.5 144 L 240.5 143 L 237 145.5 Q 235.9 148.8 238.5 148 L 240 145 L 263.5 144 L 271 146 Q 272.1 148.7 269.5 148 L 270.5 150 L 274 151 L 274 149 Q 271.3 150.1 272 147.5 L 273.5 148 L 278 150.5 L 276 151.5 L 278 155.5 Q 276.7 159 272 158 Q 270.9 161.5 278.5 160 L 280.5 155 L 282 158 L 286.5 160 L 280.5 152 L 288 157.5 Q 286.8 161.3 290.5 160 L 296 167.5 L 288 161.5 L 290 166 L 293 167.5 L 288 169.5 Q 286.5 177.1 290 176 Q 289 171.3 292.5 170 L 296.5 172 L 297.5 170 Q 302.5 175 303 183 L 299 182 L 299 184 L 303 184 L 303 185.5 L 304 186.5 L 304.5 200 L 305.5 193 L 306 205.5 L 304 212.5 L 301.5 215 L 300 215.5 L 301 218 L 297 216 L 298 221.5 L 296.5 224 L 296 222.5 L 297 219.5 L 296 215 L 293 216.5 L 293 222.5 Q 295.7 223.6 295 227 L 297.5 226 L 298 228 L 295.5 229 L 295 227 Q 290.4 225.8 289 228.5 L 290 232 Q 294.5 230.5 293 235 Q 290.3 233.9 291 236.5 L 289 240 L 286.5 240 L 280.5 245 L 279.5 244 L 274.5 249 L 273.5 248 L 272 248.5 L 272.5 250 L 268 248.5 L 272 248 Q 273.3 244.7 268.5 246 L 264 247 Q 262.8 250 266.5 249 L 266.5 250 Q 263.2 248.9 264 251.5 L 264.5 253 L 262.5 252 Q 260.5 254.8 256 254 Q 257.1 251.3 254.5 252 Q 252.8 256.8 244.5 255 L 239 253.5 L 239.5 252 Q 234.7 253.3 236 250 L 245 248.5 L 240 248 L 238.5 245 L 229 244 L 229.5 242 L 237.5 242 L 236.5 240 L 225.5 240 L 225 241.5 L 224 244 L 218 241 Q 219.3 238 215.5 239 L 213 240.5 L 224.5 248 L 228.5 246 L 235 249.5 L 232 250 Q 230.8 253 234.5 252 L 234.5 253 L 224.5 250 L 211 241 L 211 239 L 209 239 L 209 237 Q 206.3 238.1 207 235.5 Q 202.6 233 202 228 Q 199.3 229.1 200 226.5 L 198 222.5 L 199 222.5 L 207.5 235 L 209 230.5 L 208 230.5 L 207.5 232 L 206 227.5 L 208 227 L 206.5 220 L 205 222.5 L 206 225.5 L 202 222.5 L 199.5 210 L 199 213 Q 196.3 211.9 197 214.5 L 195 215.5 L 193 208.5 L 193 192.5 L 192 190.5 Q 195.3 188.8 194.5 183 L 197 184 L 196 178 Q 199 176.8 198 180.5 L 201 182 L 200.5 176 L 199.5 178 L 199 176 Q 196.3 177.1 197 174.5 L 199 171 L 204.5 172 L 206 168.5 L 205 167.5 L 206.5 165 L 202.5 167 L 205 163.5 L 210.5 157 L 213 155.5 Q 212.3 153.3 214.5 154 L 216 153.5 L 212 158.5 L 213.5 159 L 216 157.5 Q 215.3 159.8 217.5 159 L 224 160 L 221 155.5 L 223.5 154 Q 225.3 156.8 231.5 155 L 233 152 L 226 151 Q 224.7 147.7 229.5 149 L 232 150.5 L 230.5 147 L 229 146.5 L 230.5 146 L 233 147.5 L 235.5 144 L 240.5 142 Z M 265 151 L 265 152 L 270 152 L 265 151 Z M 272 153 L 272 156 Q 276 157 275 155 L 272 153 Z M 225 158 L 225 160 L 229 159 L 225 158 Z M 237 158 Q 236 161 239 160 Q 240 157 237 158 Z M 292 173 L 292 176 Q 296 177 295 175 L 292 173 Z M 202 174 Q 201 178 206 176 Q 207 172 202 174 Z M 297 174 Q 296 177 299 176 Q 300 173 297 174 Z M 297 179 L 296 184 L 297 184 L 297 179 Z M 198 184 L 196 188 L 199 189 L 199 184 L 198 184 Z M 206 186 L 205 189 Q 204 194 208 192 L 208 186 L 206 186 Z M 194 189 Q 193 193 196 192 Q 197 188 194 189 Z M 196 208 L 196 213 L 197 213 Q 199 207 196 208 Z M 207 208 L 205 210 L 206 212 Q 205 216 208 215 L 208 209 L 207 208 Z M 302 208 L 300 211 L 304 210 Q 305 207 302 208 Z M 288 209 Q 287 212 290 211 Q 291 208 288 209 Z M 290 219 L 288 221 Q 287 224 290 223 L 290 219 Z M 288 233 L 289 236 L 291 235 Q 292 232 288 233 Z M 256 240 L 256 243 L 263 242 L 263 240 L 256 240 Z M 273 240 L 269 241 L 270 243 L 275 242 L 273 240 Z M 278 240 L 278 242 L 283 241 L 278 240 Z M 227 248 L 227 249 L 230 249 L 227 248 Z M 248 248 L 248 250 Q 246 253 241 251 L 242 253 Q 250 254 252 250 L 252 248 L 248 248 Z M 256 249 L 256 252 L 261 252 L 261 250 L 256 249 Z " /><path fill="rgb(192,224,237)" stroke="rgb(192,224,237)" stroke-width="1" opacity="1" d="M 221.5 149 L 222 151 L 220 150.5 L 221.5 149 Z " /><path fill="rgb(192,224,237)" stroke="rgb(192,224,237)" stroke-width="1" opacity="1" d="M 197 216 Q 199.7 214.9 199 217.5 L 197.5 221 L 196 218.5 L 197 216 Z " /><path fill="rgb(192,224,237)" stroke="rgb(192,224,237)" stroke-width="1" opacity="1" d="M 205.5 287 L 290.5 287 Q 295.1 289.9 303.5 289 L 306 290.5 L 305.5 292 L 310 292.5 L 309.5 294 L 312 294.5 L 310 295.5 L 313 296 Q 311.8 292.3 317 294 Q 315.9 296.7 318.5 296 L 321 296.5 L 320 299.5 L 322.5 298 L 328 302.5 L 326 303.5 L 328 304 L 330 309.5 L 328.5 312 L 331 312 L 331 310 Q 333.7 311.1 333 308.5 L 329 303.5 L 330.5 303 L 337 308.5 L 338.5 311 L 340 311.5 L 338.5 312 L 336.5 311 L 335 313.5 L 338 314.5 L 339.5 318 Q 342.1 317.3 341 320 L 343 320 L 343 322.5 L 342 325.5 L 343 329.5 L 346.5 333 L 352 330 L 353 332.5 L 351 332.5 L 350 336 L 353.5 335 L 353 336.5 L 352 343.5 L 353 343.5 L 353.5 341 L 354 344 L 356.5 343 L 357 345.5 L 358 353 L 356 352.5 L 357 348.5 L 356 346 Q 352.7 344.7 354 349.5 L 353 349.5 L 352.5 348 L 352 351 L 355 352.5 L 354 357.5 L 354.5 359 L 141 358.5 L 142 355.5 L 141 352.5 L 144 351 L 143.5 348 L 142.5 350 L 142 346 Q 139.3 344.9 140 347.5 L 139 351.5 L 139.5 353 Q 136.1 353.9 138 348.5 L 140 344.5 L 139.5 343 L 142 344 L 142.5 341 L 143.5 344 L 144 340.5 L 142 335.5 L 143.5 336 Q 146.8 337.1 146 334.5 L 144.5 332 L 143 332.5 L 144 330 L 149.5 333 L 153 329.5 L 154 323.5 L 153 320 L 155 320 Q 153.9 317.3 156.5 318 L 159.5 313 L 161 313.5 L 159.5 311 L 156.5 312 L 156.5 311 L 159 309.5 L 160.5 307 L 166.5 303 L 165 305.5 L 163 310 Q 166 309 165 312 L 167.5 312 L 166 309.5 L 168 304 L 170 303.5 L 168 303 Q 166.9 300.3 169.5 301 L 174 298 Q 172.7 302.1 176 301 L 175 296.5 L 176 296.5 L 177.5 299 L 182 296.5 L 180 296 Q 178.9 292.7 183 294 Q 181.7 297.3 186.5 296 L 191.5 297 L 191.5 296 L 188 295.5 L 191.5 295 L 193 295.5 L 193 293 L 186.5 293 L 187.5 291 L 192.5 289 Q 200.9 289.9 205.5 287 Z M 305 294 L 305 295 L 309 295 L 305 294 Z M 306 299 L 304 301 L 306 304 L 309 303 Q 311 297 306 299 Z M 171 301 Q 170 304 174 303 Q 175 300 171 301 Z M 318 301 L 317 302 Q 312 301 313 304 L 322 304 L 318 301 Z M 323 301 L 323 302 L 326 302 L 323 301 Z M 160 309 L 160 311 L 162 310 L 160 309 Z M 335 309 L 336 311 Q 337 308 335 309 Z M 160 331 L 157 335 Q 156 338 160 336 L 160 331 Z M 337 331 Q 334 338 339 336 L 337 331 Z M 155 332 L 152 335 Q 154 338 155 335 L 155 332 Z M 342 332 Q 340 335 343 336 Q 346 334 342 332 Z M 146 351 L 143 352 L 142 355 L 143 357 L 144 357 L 145 354 L 352 354 L 353 357 L 354 355 L 353 352 L 351 351 L 146 351 Z " /><path fill="rgb(192,224,237)" stroke="rgb(192,224,237)" stroke-width="1" opacity="1" d="M 184.5 294 L 187 294.5 L 184.5 295 L 184.5 294 Z " /><path fill="rgb(192,224,237)" stroke="rgb(192,224,237)" stroke-width="1" opacity="1" d="M 155.5 313 Q 159 315 154.5 317 L 152 318.5 Q 152.8 320.8 150.5 320 L 155 314.5 L 155.5 313 Z " /><path fill="rgb(192,224,237)" stroke="rgb(192,224,237)" stroke-width="1" opacity="1" d="M 340.5 313 L 346 319.5 L 344 320 L 342.5 317 L 339 314.5 L 340.5 313 Z " /><path fill="rgb(192,224,237)" stroke="rgb(192,224,237)" stroke-width="1" opacity="1" d="M 151.5 322 L 152 324.5 L 151 324.5 L 151.5 322 Z " /><path fill="rgb(192,224,237)" stroke="rgb(192,224,237)" stroke-width="1" opacity="1" d="M 344.5 322 L 345 324.5 L 344 324.5 L 344.5 322 Z " /><path fill="rgb(192,224,237)" stroke="rgb(192,224,237)" stroke-width="1" opacity="1" d="M 148.5 324 L 147 326.5 L 145.5 329 L 145 327.5 L 148.5 324 Z " /><path fill="rgb(192,224,237)" stroke="rgb(192,224,237)" stroke-width="1" opacity="1" d="M 347.5 324 L 351 328.5 L 349 327.5 L 347.5 324 Z " /><path fill="rgb(192,224,237)" stroke="rgb(192,224,237)" stroke-width="1" opacity="1" d="M 138.5 354 L 139 358.5 L 138 358.5 L 138.5 354 Z " /><path fill="rgb(192,224,237)" stroke="rgb(192,224,237)" stroke-width="1" opacity="1" d="M 357.5 354 L 358 358.5 L 357 358.5 L 357.5 354 Z " /></svg>