<svg width="31" height="31" viewBox="0 0 31 31" fill="none" xmlns="http://www.w3.org/2000/svg">
<path d="M4.43652 15L4.43652 6H14.9999V9.8C14.9999 12.6719 12.6718 15 9.79988 15H4.43652Z" fill="#90C090"/>
<rect y="15" width="9" height="8.87322" rx="4.43661" transform="rotate(-90 0 15)" fill="#90C090"/>
<rect x="6.12695" y="9" width="9" height="8.87322" rx="4.43661" transform="rotate(-90 6.12695 9)" fill="#90C090"/>
<path d="M15 12.4C15 13.8359 13.8359 15 12.4 15L6.12678 15L6.12678 4.28571L15 4.28571L15 12.4Z" fill="#90C090"/>
<path d="M16 4.43665H25V15H21.2C18.3281 15 16 12.6719 16 9.8V4.43665Z" fill="#829671"/>
<rect x="16" width="9" height="8.87322" rx="4.43661" fill="#829671"/>
<rect x="22" y="6.12683" width="9" height="8.87322" rx="4.43661" fill="#829671"/>
<path d="M18.6 15C17.1641 15 16 13.8359 16 12.4V6.12678H26.7143V15H18.6Z" fill="#829671"/>
<path d="M15 26.5634H6L6 16L9.8 16C12.6719 16 15 18.3281 15 21.2V26.5634Z" fill="#829671"/>
<rect x="15" y="31" width="9" height="8.87322" rx="4.43661" transform="rotate(180 15 31)" fill="#829671"/>
<rect x="9" y="24.8732" width="9" height="8.87322" rx="4.43661" transform="rotate(180 9 24.8732)" fill="#829671"/>
<path d="M12.4 16C13.8359 16 15 17.1641 15 18.6V24.8732H4.28571V16H12.4Z" fill="#829671"/>
<path d="M26.5635 16V25H16.0001V21.2C16.0001 18.3281 18.3282 16 21.2001 16H26.5635Z" fill="#90C090"/>
<rect x="31" y="16" width="9" height="8.87322" rx="4.43661" transform="rotate(90 31 16)" fill="#90C090"/>
<rect x="24.873" y="22" width="9" height="8.87322" rx="4.43661" transform="rotate(90 24.873 22)" fill="#90C090"/>
<path d="M16 18.6C16 17.1641 17.1641 16 18.6 16H24.8732V26.7143H16V18.6Z" fill="#90C090"/>
</svg>
